<svg id="vtest-english-4skills" xmlns="http://www.w3.org/2000/svg" xmlns:xlink="http://www.w3.org/1999/xlink" width="505.223" height="496.584" viewBox="0 0 505.223 496.584">
  <defs>
    <clipPath id="clip-path">
      <rect id="Rectangle_1014" data-name="Rectangle 1014" width="505.223" height="496.584" fill="none"/>
    </clipPath>
    <clipPath id="clip-path-3">
      <rect id="Rectangle_1004" data-name="Rectangle 1004" width="433.236" height="433.201" transform="translate(49.342)" fill="none"/>
    </clipPath>
    <clipPath id="clip-path-4">
      <rect id="Rectangle_1005" data-name="Rectangle 1005" width="123.702" height="135.107" transform="translate(72.279 338.41)" fill="none"/>
    </clipPath>
    <clipPath id="clip-path-5">
      <rect id="Rectangle_1006" data-name="Rectangle 1006" width="42.04" height="54.568" transform="translate(100.882 343.336)" fill="none"/>
    </clipPath>
    <clipPath id="clip-path-6">
      <rect id="Rectangle_1007" data-name="Rectangle 1007" width="117.784" height="131.327" transform="translate(185.464 356.083)" fill="none"/>
    </clipPath>
    <clipPath id="clip-path-7">
      <rect id="Rectangle_1008" data-name="Rectangle 1008" width="121.347" height="127.913" transform="translate(292.493 368.052)" fill="none"/>
    </clipPath>
    <clipPath id="clip-path-8">
      <rect id="Rectangle_1009" data-name="Rectangle 1009" width="116.84" height="129.022" transform="translate(388.383 337.061)" fill="none"/>
    </clipPath>
  </defs>
  <g id="Groupe_2918" data-name="Groupe 2918" clip-path="url(#clip-path)">
    <g id="Groupe_2917" data-name="Groupe 2917">
      <g id="Groupe_2916" data-name="Groupe 2916" clip-path="url(#clip-path)">
        <path id="Tracé_4270" data-name="Tracé 4270" d="M265.961,405.9c-104.375,0-189.291-84.915-189.291-189.29S161.586,27.321,265.961,27.321s189.29,84.916,189.29,189.291S370.336,405.9,265.961,405.9m0-375.581C163.239,30.321,79.67,113.89,79.67,216.612S163.239,402.9,265.961,402.9s186.29-83.569,186.29-186.29S368.682,30.321,265.961,30.321" fill="#f8b200"/>
        <path id="Tracé_4271" data-name="Tracé 4271" d="M262.386,79.666h36.105v76.5h11.081v23.95H298.491v23.594h-31.1V180.115H222.349V155.092Zm6.077,34.317h-.357l-20.734,42.182h21.091Z" fill="#3ab0bd"/>
        <path id="Tracé_4272" data-name="Tracé 4272" d="M162.594,236.505a10.228,10.228,0,0,0-1.237-5.187,4.1,4.1,0,0,0-3.807-2.142,4.8,4.8,0,0,0-4.188,1.856,6.923,6.923,0,0,0-1.333,4.141,6.789,6.789,0,0,0,2.141,5.282,19.717,19.717,0,0,0,5.378,3.379q3.234,1.428,6.949,2.9a31.107,31.107,0,0,1,6.948,3.855,19.121,19.121,0,0,1,5.377,6.234,20.579,20.579,0,0,1,2.143,10.042q0,10.851-6.188,15.753t-17.893,4.9a47.037,47.037,0,0,1-9.757-.9,17.492,17.492,0,0,1-7.139-3.14,14.138,14.138,0,0,1-4.426-5.854,23.09,23.09,0,0,1-1.523-8.947V266.3h17.133v1.618q0,4.38,1.619,6.14a5.423,5.423,0,0,0,4.188,1.76,5.038,5.038,0,0,0,4.235-1.9,7.386,7.386,0,0,0,1.475-4.664,6.956,6.956,0,0,0-2.046-5.283,18.038,18.038,0,0,0-5.14-3.331q-3.093-1.379-6.71-2.808a29.428,29.428,0,0,1-6.711-3.712,18.282,18.282,0,0,1-5.14-6,20.037,20.037,0,0,1-2.046-9.708q0-10.374,5.521-15.8t16.752-5.426q11.611,0,16.8,5t5.188,15.943H162.594Z" fill="#ffbd00"/>
        <path id="Tracé_4273" data-name="Tracé 4273" d="M204.282,218.515V244.6h.191l13.135-26.08h18.846l-17.132,29.7,19.226,38.263H218.369l-10.374-23.7-3.713,5.711v17.989h-17.7v-67.96Z" fill="#ffbd00"/>
        <rect id="Rectangle_1003" data-name="Rectangle 1003" width="17.703" height="67.96" transform="translate(239.5 218.516)" fill="#ffbd00"/>
        <path id="Tracé_4274" data-name="Tracé 4274" d="M282.617,218.515v53.493h21.8v14.467h-39.5v-67.96Z" fill="#ffbd00"/>
        <path id="Tracé_4275" data-name="Tracé 4275" d="M326.686,218.515v53.493h21.8v14.467h-39.5v-67.96Z" fill="#ffbd00"/>
        <path id="Tracé_4276" data-name="Tracé 4276" d="M379.511,236.505a10.228,10.228,0,0,0-1.237-5.187,4.1,4.1,0,0,0-3.807-2.142,4.8,4.8,0,0,0-4.188,1.856,6.923,6.923,0,0,0-1.333,4.141,6.789,6.789,0,0,0,2.141,5.282,19.717,19.717,0,0,0,5.378,3.379q3.234,1.428,6.949,2.9a31.107,31.107,0,0,1,6.948,3.855,19.121,19.121,0,0,1,5.377,6.234,20.579,20.579,0,0,1,2.143,10.042q0,10.851-6.188,15.753t-17.893,4.9a47.037,47.037,0,0,1-9.757-.9,17.492,17.492,0,0,1-7.139-3.14,14.138,14.138,0,0,1-4.426-5.854,23.09,23.09,0,0,1-1.523-8.947V266.3h17.133v1.618q0,4.38,1.619,6.14a5.423,5.423,0,0,0,4.188,1.76,5.038,5.038,0,0,0,4.235-1.9,7.386,7.386,0,0,0,1.475-4.664,6.956,6.956,0,0,0-2.046-5.283,18.038,18.038,0,0,0-5.14-3.331q-3.093-1.379-6.71-2.808A29.429,29.429,0,0,1,359,254.114a18.282,18.282,0,0,1-5.14-6,20.036,20.036,0,0,1-2.046-9.708q0-10.374,5.521-15.8t16.752-5.426q11.611,0,16.8,5t5.188,15.943H379.511Z" fill="#ffbd00"/>
        <g id="Groupe_2900" data-name="Groupe 2900" style="mix-blend-mode: multiply;isolation: isolate">
          <g id="Groupe_2899" data-name="Groupe 2899">
            <g id="Groupe_2898" data-name="Groupe 2898" clip-path="url(#clip-path-3)">
              <path id="Tracé_4277" data-name="Tracé 4277" d="M262.387,433.2h-.03c-2.88-.047-5.8-.152-8.675-.313a1.723,1.723,0,1,1,.194-3.441c2.83.158,5.7.262,8.538.308a1.723,1.723,0,0,1-.027,3.446m8.612-.028a1.723,1.723,0,0,1-.039-3.446c2.844-.065,5.716-.189,8.537-.365a1.723,1.723,0,0,1,.215,3.439c-2.866.18-5.783.3-8.672.372H271m-25.8-.933c-.055,0-.11,0-.166-.008-2.867-.275-5.767-.612-8.623-1a1.723,1.723,0,1,1,.467-3.414c2.808.384,5.664.715,8.484.985a1.723,1.723,0,0,1-.162,3.439m42.989-.144a1.723,1.723,0,0,1-.173-3.437c2.819-.29,5.671-.641,8.478-1.044a1.723,1.723,0,0,1,.49,3.411c-2.853.409-5.752.766-8.617,1.06a1.519,1.519,0,0,1-.178.01m-60.051-2.185a1.752,1.752,0,0,1-.3-.027c-2.844-.505-5.709-1.074-8.516-1.69a1.723,1.723,0,0,1,.741-3.366c2.76.607,5.58,1.167,8.377,1.664a1.723,1.723,0,0,1-.3,3.419m77.1-.261a1.723,1.723,0,0,1-.31-3.417c2.787-.515,5.6-1.094,8.367-1.721a1.723,1.723,0,0,1,.762,3.361c-2.811.637-5.671,1.226-8.5,1.748a1.7,1.7,0,0,1-.315.029m-93.92-3.43a1.694,1.694,0,0,1-.437-.058c-2.794-.732-5.6-1.53-8.353-2.371a1.723,1.723,0,0,1,1.008-3.295c2.705.828,5.47,1.613,8.219,2.333a1.724,1.724,0,0,1-.437,3.391m110.716-.376a1.723,1.723,0,0,1-.448-3.387c2.744-.74,5.5-1.545,8.2-2.39a1.723,1.723,0,1,1,1.031,3.288c-2.743.86-5.547,1.677-8.335,2.429a1.7,1.7,0,0,1-.45.06m-127.209-4.669a1.722,1.722,0,0,1-.57-.1c-2.72-.954-5.464-1.979-8.154-3.046a1.723,1.723,0,0,1,1.271-3.2c2.648,1.05,5.347,2.058,8.024,3a1.724,1.724,0,0,1-.571,3.35m143.643-.482a1.723,1.723,0,0,1-.581-3.345c2.668-.956,5.353-1.979,7.982-3.043a1.723,1.723,0,1,1,1.293,3.194c-2.673,1.081-5.4,2.122-8.113,3.093a1.717,1.717,0,0,1-.581.1m-159.689-5.885a1.716,1.716,0,0,1-.7-.149c-2.629-1.168-5.279-2.411-7.877-3.693a1.723,1.723,0,0,1,1.525-3.09c2.557,1.262,5.165,2.484,7.751,3.633a1.724,1.724,0,0,1-.7,3.3m175.635-.563a1.724,1.724,0,0,1-.711-3.294c2.571-1.162,5.16-2.395,7.694-3.666a1.723,1.723,0,1,1,1.545,3.08c-2.575,1.292-5.206,2.545-7.819,3.727a1.719,1.719,0,0,1-.709.153M163.3,407.17a1.722,1.722,0,0,1-.823-.21c-2.53-1.379-5.07-2.829-7.549-4.312a1.723,1.723,0,0,1,1.767-2.958c2.441,1.459,4.941,2.887,7.431,4.243a1.724,1.724,0,0,1-.826,3.237m206.469-.629a1.723,1.723,0,0,1-.835-3.231c2.474-1.368,4.957-2.806,7.38-4.275a1.723,1.723,0,1,1,1.787,2.946c-2.462,1.494-4.986,2.955-7.5,4.345a1.708,1.708,0,0,1-.831.215M148.5,398.319a1.713,1.713,0,0,1-.942-.282c-2.406-1.573-4.821-3.222-7.175-4.9a1.723,1.723,0,1,1,2-2.807c2.317,1.652,4.693,3.274,7.062,4.824a1.723,1.723,0,0,1-.945,3.165m235.972-.693a1.723,1.723,0,0,1-.953-3.16c2.362-1.564,4.724-3.2,7.021-4.854a1.723,1.723,0,1,1,2.015,2.8c-2.333,1.684-4.733,3.343-7.133,4.932a1.715,1.715,0,0,1-.95.287m-250.008-9.311a1.713,1.713,0,0,1-1.055-.361c-2.269-1.757-4.543-3.593-6.759-5.455a1.723,1.723,0,1,1,2.217-2.638c2.182,1.833,4.42,3.639,6.653,5.369a1.723,1.723,0,0,1-1.056,3.085m263.962-.756a1.723,1.723,0,0,1-1.064-3.079c2.226-1.745,4.451-3.562,6.614-5.4a1.724,1.724,0,0,1,2.233,2.626c-2.2,1.868-4.459,3.714-6.722,5.487a1.707,1.707,0,0,1-1.061.367m-277.149-10.33a1.714,1.714,0,0,1-1.16-.449c-2.132-1.942-4.252-3.952-6.3-5.974a1.723,1.723,0,0,1,2.421-2.453c2.017,1.99,4.1,3.968,6.2,5.879a1.723,1.723,0,0,1-1.16,3m290.262-.82a1.722,1.722,0,0,1-1.167-2.99c2.08-1.917,4.154-3.906,6.166-5.913a1.723,1.723,0,0,1,2.433,2.44c-2.042,2.039-4.151,4.06-6.265,6.007a1.716,1.716,0,0,1-1.167.456m-302.52-11.276a1.712,1.712,0,0,1-1.257-.546c-1.96-2.094-3.913-4.265-5.8-6.453a1.723,1.723,0,0,1,2.607-2.253c1.861,2.154,3.782,4.291,5.711,6.352a1.722,1.722,0,0,1-1.258,2.9m314.71-.888a1.722,1.722,0,0,1-1.264-2.893c1.927-2.084,3.838-4.233,5.677-6.388a1.723,1.723,0,1,1,2.621,2.238c-1.869,2.189-3.81,4.373-5.769,6.49a1.72,1.72,0,0,1-1.265.553M97.767,352.105a1.717,1.717,0,0,1-1.348-.65c-1.784-2.24-3.557-4.559-5.268-6.89a1.723,1.723,0,1,1,2.778-2.039c1.684,2.3,3.429,4.577,5.185,6.783a1.722,1.722,0,0,1-1.347,2.8m337.148-.963a1.722,1.722,0,0,1-1.353-2.789c1.748-2.219,3.482-4.515,5.153-6.821a1.723,1.723,0,1,1,2.791,2.021c-1.7,2.344-3.46,4.676-5.237,6.932a1.716,1.716,0,0,1-1.354.657M87.6,338.229a1.72,1.72,0,0,1-1.431-.761c-1.61-2.389-3.191-4.84-4.7-7.286a1.723,1.723,0,0,1,2.933-1.81c1.486,2.408,3.041,4.82,4.624,7.171a1.723,1.723,0,0,1-1.426,2.686m357.429-1.045a1.722,1.722,0,0,1-1.432-2.677c1.575-2.369,3.12-4.8,4.592-7.216a1.723,1.723,0,0,1,2.944,1.792c-1.5,2.458-3.067,4.925-4.667,7.332a1.722,1.722,0,0,1-1.437.769M78.566,323.592a1.723,1.723,0,0,1-1.5-.878c-1.409-2.5-2.788-5.071-4.1-7.635a1.723,1.723,0,1,1,3.068-1.568c1.29,2.523,2.647,5.05,4.032,7.513a1.723,1.723,0,0,1-1.5,2.568m375.423-1.137a1.723,1.723,0,0,1-1.505-2.559c1.376-2.48,2.722-5.025,4-7.565a1.723,1.723,0,1,1,3.078,1.55c-1.3,2.581-2.667,5.167-4.065,7.687a1.724,1.724,0,0,1-1.509.887M70.743,308.289a1.723,1.723,0,0,1-1.565-1c-1.2-2.594-2.366-5.263-3.471-7.934a1.723,1.723,0,1,1,3.183-1.318c1.089,2.628,2.239,5.255,3.416,7.808a1.723,1.723,0,0,1-1.563,2.445m391-1.244a1.723,1.723,0,0,1-1.568-2.435c1.178-2.6,2.315-5.244,3.379-7.866a1.723,1.723,0,1,1,3.194,1.3c-1.082,2.665-2.238,5.355-3.435,7.995a1.724,1.724,0,0,1-1.57,1.011M64.169,292.4a1.721,1.721,0,0,1-1.617-1.13c-1-2.709-1.947-5.471-2.829-8.209A1.724,1.724,0,0,1,63.005,282c.867,2.694,1.8,5.411,2.781,8.078a1.723,1.723,0,0,1-1.617,2.317m404.071-1.345a1.726,1.726,0,0,1-1.621-2.308c.957-2.657,1.877-5.388,2.735-8.118a1.723,1.723,0,1,1,3.287,1.034c-.872,2.774-1.807,5.551-2.78,8.252a1.724,1.724,0,0,1-1.621,1.14M58.889,276a1.724,1.724,0,0,1-1.659-1.262c-.77-2.774-1.5-5.6-2.155-8.41a1.723,1.723,0,0,1,3.355-.788c.649,2.762,1.362,5.546,2.121,8.275A1.724,1.724,0,0,1,58.889,276m414.527-1.4a1.727,1.727,0,0,1-1.664-2.174c.742-2.742,1.436-5.531,2.064-8.289a1.723,1.723,0,1,1,3.36.764c-.638,2.8-1.344,5.638-2.1,8.426a1.725,1.725,0,0,1-1.662,1.273M54.951,259.238a1.723,1.723,0,0,1-1.69-1.4c-.542-2.818-1.038-5.7-1.471-8.555a1.723,1.723,0,0,1,3.408-.517c.426,2.814.913,5.647,1.447,8.42a1.723,1.723,0,0,1-1.366,2.018,1.75,1.75,0,0,1-.328.031m422.289-1.43a1.791,1.791,0,0,1-.316-.028,1.724,1.724,0,0,1-1.38-2.009c.518-2.792.986-5.628,1.39-8.429a1.723,1.723,0,1,1,3.411.492c-.411,2.847-.886,5.729-1.413,8.566a1.722,1.722,0,0,1-1.692,1.408m-424.864-15.6a1.724,1.724,0,0,1-1.711-1.533c-.317-2.859-.579-5.768-.781-8.646a1.723,1.723,0,0,1,3.437-.242c.2,2.833.458,5.695.77,8.509a1.725,1.725,0,0,1-1.524,1.9,1.758,1.758,0,0,1-.191.01M479.7,240.765a1.584,1.584,0,0,1-.181-.01,1.723,1.723,0,0,1-1.535-1.892c.292-2.808.531-5.672.712-8.513a1.723,1.723,0,0,1,3.44.219c-.184,2.886-.427,5.8-.724,8.651a1.724,1.724,0,0,1-1.712,1.545M51.167,225.034a1.725,1.725,0,0,1-1.722-1.671c-.068-2.231-.1-4.5-.1-6.751,0-2.885.056-5.8.17-8.678A1.7,1.7,0,0,1,51.3,206.28a1.723,1.723,0,0,1,1.654,1.79c-.111,2.828-.168,5.7-.168,8.542,0,2.213.034,4.449.1,6.646a1.723,1.723,0,0,1-1.669,1.775h-.054m429.627-1.455h-.042a1.724,1.724,0,0,1-1.682-1.765q.063-2.593.063-5.2,0-1.676-.026-3.343a1.723,1.723,0,0,1,1.7-1.749,1.7,1.7,0,0,1,1.75,1.7q.025,1.695.025,3.4,0,2.647-.063,5.283a1.723,1.723,0,0,1-1.721,1.682m-.268-17.222a1.724,1.724,0,0,1-1.72-1.629c-.154-2.826-.368-5.692-.636-8.518a1.722,1.722,0,1,1,3.429-.326c.274,2.872.492,5.784.649,8.656a1.724,1.724,0,0,1-1.627,1.815l-.1,0m-428.78-5.228c-.046,0-.092,0-.138-.005a1.723,1.723,0,0,1-1.582-1.854c.228-2.875.517-5.781.859-8.638a1.723,1.723,0,1,1,3.421.409c-.336,2.811-.621,5.671-.844,8.5a1.723,1.723,0,0,1-1.716,1.587M478.9,189.214a1.723,1.723,0,0,1-1.7-1.491c-.383-2.821-.825-5.661-1.316-8.441a1.722,1.722,0,1,1,3.392-.6c.5,2.825.951,5.71,1.338,8.577a1.722,1.722,0,0,1-1.475,1.939,1.851,1.851,0,0,1-.234.015m-425.1-5.183a1.724,1.724,0,0,1-1.7-2c.458-2.856.978-5.73,1.548-8.543a1.723,1.723,0,1,1,3.377.683c-.56,2.767-1.072,5.6-1.523,8.4a1.723,1.723,0,0,1-1.7,1.451M475.9,172.258a1.723,1.723,0,0,1-1.681-1.357c-.6-2.757-1.271-5.551-1.991-8.306a1.723,1.723,0,1,1,3.334-.871c.732,2.8,1.412,5.641,2.024,8.443a1.726,1.726,0,0,1-1.686,2.091M57.2,167.151a1.726,1.726,0,0,1-1.675-2.133c.683-2.793,1.434-5.616,2.231-8.39a1.723,1.723,0,1,1,3.312.952c-.785,2.73-1.523,5.508-2.195,8.257a1.723,1.723,0,0,1-1.673,1.314M471.552,155.6a1.725,1.725,0,0,1-1.648-1.221c-.83-2.72-1.724-5.452-2.656-8.121a1.723,1.723,0,1,1,3.254-1.136c.947,2.711,1.855,5.487,2.7,8.251a1.727,1.727,0,0,1-1.649,2.227M61.958,150.6a1.725,1.725,0,0,1-1.636-2.266c.912-2.749,1.891-5.51,2.91-8.206a1.723,1.723,0,0,1,3.224,1.218c-1,2.652-1.966,5.368-2.862,8.073a1.726,1.726,0,0,1-1.636,1.181m403.913-11.262a1.726,1.726,0,0,1-1.6-1.09c-1.044-2.638-2.151-5.282-3.292-7.858a1.723,1.723,0,1,1,3.151-1.4c1.159,2.618,2.285,5.3,3.346,7.985a1.723,1.723,0,0,1-.968,2.236,1.7,1.7,0,0,1-.634.122M68.055,134.448a1.725,1.725,0,0,1-1.585-2.4c1.129-2.661,2.327-5.332,3.56-7.938a1.723,1.723,0,1,1,3.115,1.473c-1.214,2.565-2.392,5.193-3.5,7.811a1.722,1.722,0,0,1-1.586,1.051m390.862-10.817a1.722,1.722,0,0,1-1.547-.963c-1.245-2.533-2.563-5.081-3.916-7.574a1.723,1.723,0,1,1,3.029-1.643c1.375,2.533,2.714,5.122,3.979,7.7a1.724,1.724,0,0,1-1.545,2.484M75.43,118.848a1.724,1.724,0,0,1-1.525-2.522c1.335-2.55,2.743-5.115,4.186-7.621a1.723,1.723,0,1,1,2.986,1.719c-1.42,2.467-2.806,4.99-4.119,7.5a1.722,1.722,0,0,1-1.528.924m375.29-10.327a1.722,1.722,0,0,1-1.483-.841c-1.45-2.434-2.968-4.871-4.512-7.241a1.723,1.723,0,1,1,2.887-1.881c1.569,2.409,3.112,4.885,4.586,7.358a1.724,1.724,0,0,1-1.478,2.605M84.033,103.9a1.723,1.723,0,0,1-1.455-2.642c1.542-2.447,3.151-4.889,4.78-7.258a1.723,1.723,0,0,1,2.84,1.953c-1.6,2.332-3.187,4.734-4.706,7.143a1.722,1.722,0,0,1-1.459.8m357.3-9.794a1.722,1.722,0,0,1-1.407-.726c-1.643-2.313-3.352-4.622-5.08-6.862a1.723,1.723,0,0,1,2.729-2.1c1.755,2.275,3.491,4.62,5.161,6.971a1.724,1.724,0,0,1-1.4,2.721M93.8,89.7a1.723,1.723,0,0,1-1.378-2.756c1.726-2.306,3.524-4.611,5.342-6.848a1.722,1.722,0,1,1,2.674,2.172c-1.789,2.2-3.558,4.471-5.258,6.742a1.719,1.719,0,0,1-1.38.69m337.018-9.217a1.72,1.72,0,0,1-1.322-.617c-1.824-2.179-3.712-4.345-5.611-6.438a1.723,1.723,0,0,1,2.552-2.316c1.929,2.127,3.848,4.328,5.7,6.542a1.722,1.722,0,0,1-1.32,2.829M104.669,76.327a1.723,1.723,0,0,1-1.292-2.862c1.908-2.166,3.884-4.319,5.87-6.4a1.723,1.723,0,0,1,2.492,2.38c-1.955,2.047-3.9,4.166-5.776,6.3a1.723,1.723,0,0,1-1.294.584m314.583-8.6a1.72,1.72,0,0,1-1.229-.515c-1.994-2.029-4.05-4.039-6.109-5.974a1.723,1.723,0,0,1,2.359-2.512c2.094,1.967,4.182,4.009,6.207,6.07a1.723,1.723,0,0,1-1.228,2.931m-302.69-3.862a1.723,1.723,0,0,1-1.2-2.961c2.072-2.005,4.211-3.994,6.358-5.91a1.723,1.723,0,0,1,2.294,2.571c-2.112,1.886-4.216,3.842-6.255,5.815a1.719,1.719,0,0,1-1.2.485M406.7,55.935a1.714,1.714,0,0,1-1.128-.421c-2.147-1.863-4.356-3.7-6.567-5.471a1.723,1.723,0,1,1,2.152-2.691c2.246,1.8,4.491,3.666,6.673,5.559a1.723,1.723,0,0,1-1.13,3.024M129.4,52.4a1.723,1.723,0,0,1-1.1-3.053c2.221-1.83,4.511-3.641,6.8-5.382a1.723,1.723,0,0,1,2.084,2.745c-2.258,1.714-4.512,3.5-6.7,5.3a1.718,1.718,0,0,1-1.1.393m263.838-7.227a1.716,1.716,0,0,1-1.02-.336c-2.283-1.681-4.633-3.34-6.986-4.931a1.723,1.723,0,1,1,1.93-2.855c2.391,1.617,4.779,3.3,7.1,5.011a1.723,1.723,0,0,1-1.022,3.111M143.11,42a1.723,1.723,0,0,1-.988-3.136c2.363-1.649,4.788-3.271,7.209-4.82a1.723,1.723,0,0,1,1.857,2.9c-2.382,1.524-4.768,3.12-7.093,4.743a1.716,1.716,0,0,1-.985.31m235.853-6.48a1.716,1.716,0,0,1-.906-.258c-2.423-1.5-4.9-2.967-7.362-4.358a1.723,1.723,0,0,1,1.7-3c2.5,1.413,5.019,2.9,7.482,4.428a1.723,1.723,0,0,1-.909,3.188M157.6,32.724a1.723,1.723,0,0,1-.872-3.21c2.485-1.455,5.032-2.876,7.568-4.226a1.723,1.723,0,1,1,1.619,3.042c-2.5,1.328-5,2.727-7.446,4.158a1.72,1.72,0,0,1-.869.236m206.353-5.693a1.715,1.715,0,0,1-.785-.191c-2.531-1.3-5.119-2.561-7.693-3.754a1.723,1.723,0,1,1,1.449-3.127c2.615,1.212,5.245,2.5,7.816,3.815a1.723,1.723,0,0,1-.787,3.257M172.768,24.645a1.724,1.724,0,0,1-.749-3.276c2.592-1.249,5.242-2.461,7.876-3.6a1.723,1.723,0,1,1,1.371,3.162c-2.592,1.123-5.2,2.317-7.751,3.546a1.719,1.719,0,0,1-.747.171m175.524-4.868a1.705,1.705,0,0,1-.659-.133c-2.63-1.091-5.314-2.142-7.975-3.122a1.723,1.723,0,0,1,1.191-3.234c2.706,1,5.431,2.064,8.1,3.174a1.723,1.723,0,0,1-.661,3.315M188.527,17.814a1.723,1.723,0,0,1-.621-3.331c2.692-1.04,5.439-2.037,8.16-2.965a1.723,1.723,0,0,1,1.112,3.262c-2.679.913-5.38,1.894-8.03,2.918a1.715,1.715,0,0,1-.621.116m143.565-4.006a1.72,1.72,0,0,1-.53-.084c-2.7-.873-5.454-1.7-8.181-2.462a1.723,1.723,0,1,1,.925-3.319c2.773.773,5.57,1.615,8.315,2.5a1.723,1.723,0,0,1-.529,3.363M204.827,12.261a1.724,1.724,0,0,1-.488-3.376c2.757-.817,5.573-1.59,8.371-2.3a1.723,1.723,0,1,1,.845,3.341c-2.753.7-5.525,1.456-8.238,2.26a1.7,1.7,0,0,1-.49.072M315.505,9.18a1.751,1.751,0,0,1-.4-.047c-2.755-.65-5.564-1.254-8.352-1.794a1.723,1.723,0,1,1,.656-3.383c2.832.549,5.688,1.162,8.487,1.823a1.724,1.724,0,0,1-.393,3.4M221.522,8.04a1.723,1.723,0,0,1-.352-3.409c2.811-.592,5.681-1.135,8.53-1.615a1.723,1.723,0,1,1,.572,3.4c-2.8.473-5.627,1.007-8.393,1.589a1.746,1.746,0,0,1-.357.037M298.6,5.9a1.785,1.785,0,0,1-.261-.02c-2.8-.427-5.652-.8-8.47-1.117a1.723,1.723,0,1,1,.383-3.425c2.863.319,5.759.7,8.606,1.135A1.723,1.723,0,0,1,298.6,5.9m-60.1-.725a1.723,1.723,0,0,1-.216-3.432c2.857-.365,5.762-.676,8.631-.926a1.723,1.723,0,0,1,.3,3.433c-2.825.246-5.682.553-8.495.911a1.631,1.631,0,0,1-.219.014m42.981-1.185c-.041,0-.083,0-.125-.005-2.823-.2-5.694-.349-8.532-.439A1.723,1.723,0,1,1,272.936.1c2.883.092,5.8.242,8.669.447a1.723,1.723,0,0,1-.121,3.442m-25.825-.31a1.723,1.723,0,0,1-.08-3.444c2.877-.136,5.8-.216,8.679-.238h.012a1.723,1.723,0,0,1,.013,3.446c-2.836.022-5.71.1-8.542.234-.027,0-.055,0-.082,0" fill="#0d717f"/>
            </g>
          </g>
        </g>
        <path id="Tracé_4278" data-name="Tracé 4278" d="M40.185,328.959a11.079,11.079,0,1,1-5.42-14.7,11.079,11.079,0,0,1,5.42,14.7" fill="#fff"/>
        <path id="Tracé_4279" data-name="Tracé 4279" d="M30.106,335.828a11.51,11.51,0,1,1,10.471-6.689h0a11.531,11.531,0,0,1-10.471,6.688m.024-22.163a10.658,10.658,0,1,0,4.454.984,10.637,10.637,0,0,0-4.454-.984m10.055,15.294h0Z" fill="#0d717f"/>
        <path id="Tracé_4280" data-name="Tracé 4280" d="M.61,295.612A6.621,6.621,0,1,0,9.4,292.373,6.622,6.622,0,0,0,.61,295.612" fill="#3ab0bd"/>
        <path id="Tracé_4281" data-name="Tracé 4281" d="M438.777,49.833a11.079,11.079,0,1,1,11.079,11.079,11.079,11.079,0,0,1-11.079-11.079" fill="#ffbd00"/>
        <path id="Tracé_4282" data-name="Tracé 4282" d="M470.97,24.606a4.215,4.215,0,1,0-4.215,4.215,4.215,4.215,0,0,0,4.215-4.215" fill="#3ab0bd"/>
        <g id="Groupe_2903" data-name="Groupe 2903" opacity="0.5">
          <g id="Groupe_2902" data-name="Groupe 2902">
            <g id="Groupe_2901" data-name="Groupe 2901" clip-path="url(#clip-path-4)">
              <path id="Tracé_4283" data-name="Tracé 4283" d="M164.068,338.592l-74.153,9.924a20.33,20.33,0,0,0-17.454,22.847l8.884,66.384A20.33,20.33,0,0,0,104.192,455.2l3.966-.53a12.585,12.585,0,0,1,8.141,1.574,15.088,15.088,0,0,1,7.394,11.989c.01.106.021.212.031.318a5.417,5.417,0,0,0,9.7,2.831l8.795-11.5a33.1,33.1,0,0,1,21.9-12.7l10.245-1.371,3.981-.533A20.33,20.33,0,0,0,195.8,422.429l-8.884-66.383a20.33,20.33,0,0,0-22.847-17.454" fill="#afafaf"/>
            </g>
          </g>
        </g>
        <path id="Tracé_4284" data-name="Tracé 4284" d="M147.052,328.718,70.963,349.19A21.412,21.412,0,0,0,55.85,375.43l18.327,68.116a21.411,21.411,0,0,0,26.239,15.114l4.069-1.1a13.254,13.254,0,0,1,8.717.535,15.886,15.886,0,0,1,9.356,11.512c.026.11.051.219.076.328a5.706,5.706,0,0,0,10.515,1.635l7.616-13.21a34.865,34.865,0,0,1,21.143-16.25l10.512-2.828,4.085-1.1a21.413,21.413,0,0,0,15.114-26.24l-18.328-68.117a21.411,21.411,0,0,0-26.239-15.113" fill="#3ab0bd"/>
        <path id="Tracé_4285" data-name="Tracé 4285" d="M159.937,360.551l-8.283-2.149s-25.693-32.915-35.208-34.2-28.688,1.183-34.459,20.019,20.187,46.027,28.687,51.1,26.177,40.569,40.545,9.515" fill="#3ab0bd"/>
        <path id="Tracé_4286" data-name="Tracé 4286" d="M138.649,401.91a.5.5,0,0,1-.38-.825c.047-.055,4.69-5.58,4.051-11.945-.357-3.563-2.293-6.744-5.754-9.457-5.738-4.5-4.531-6.931-3.254-9.507,1.54-3.1,3.457-6.97-7.177-17.014-7.023-6.634-13.682-9.795-19.827-9.39a14.641,14.641,0,0,0-9.819,4.645.5.5,0,0,1-.778-.629,15.379,15.379,0,0,1,10.509-5.013c6.415-.438,13.359,2.82,20.6,9.661,11.171,10.552,9.072,14.784,7.386,18.184-1.234,2.485-2.124,4.281,2.974,8.276,3.686,2.889,5.749,6.3,6.133,10.153.677,6.793-4.084,12.448-4.287,12.686a.5.5,0,0,1-.38.175" fill="#040405"/>
        <path id="Tracé_4287" data-name="Tracé 4287" d="M109.442,375.781a.5.5,0,0,1-.374-.168c-12.106-13.657-8.079-31.172-8.037-31.347a.5.5,0,0,1,.973.233c-.041.171-3.941,17.192,7.812,30.45a.5.5,0,0,1-.374.832" fill="#040405"/>
        <path id="Tracé_4288" data-name="Tracé 4288" d="M137.819,417.938c-7.262,0-14.282-8.118-19.988-14.715-2.92-3.377-5.443-6.293-7.413-7.47-9.417-5.617-34.665-32.89-28.911-51.673,5.838-19.052,25.455-21.651,35-20.368,9.394,1.264,33.387,31.641,35.431,34.248l8.119,2.107a.5.5,0,0,1,.359.61.5.5,0,0,1-.611.358l-8.446-2.192-.1-.134c-.254-.327-25.674-32.767-34.879-34.005-9.267-1.245-28.276,1.26-33.915,19.669-3.08,10.047,3.153,22.011,8.923,30.278,7.083,10.147,15.692,17.947,19.541,20.244,2.111,1.259,4.681,4.231,7.659,7.673,5.894,6.816,13.228,15.309,20.422,14.287,4.329-.609,8.283-4.722,11.754-12.226a.5.5,0,0,1,.909.42c-3.675,7.942-7.771,12.127-12.524,12.8a9.452,9.452,0,0,1-1.33.093" fill="#040405"/>
        <g id="Groupe_2906" data-name="Groupe 2906" style="mix-blend-mode: multiply;isolation: isolate">
          <g id="Groupe_2905" data-name="Groupe 2905">
            <g id="Groupe_2904" data-name="Groupe 2904" clip-path="url(#clip-path-5)">
              <path id="Tracé_4289" data-name="Tracé 4289" d="M100.882,353.647s14.947-4.239,22.5,5.916-2.671,18.771,4.73,23.431,15.205,7.32,12.795,14.91c0,0,4.652-8.229-.165-14.537,0,0-6.292-6.4-7.248-7.52s-1.041-2.932.335-5.579,2.237-5.409-1.4-10.863-10.073-10.637-15.15-13.429a19.426,19.426,0,0,0-14.494-2.012s-1.278-.122-1.52,1.789-.379,7.894-.379,7.894" fill="#afafaf"/>
            </g>
          </g>
        </g>
        <path id="Tracé_4290" data-name="Tracé 4290" d="M121.344,399.565A3.4,3.4,0,0,1,118,403.012a17.008,17.008,0,0,1-17.236-16.738,3.4,3.4,0,1,1,6.795-.1A10.2,10.2,0,0,0,117.9,396.217a3.4,3.4,0,0,1,3.447,3.348" fill="#ffbd00"/>
        <path id="Tracé_4291" data-name="Tracé 4291" d="M121.543,413.155a3.4,3.4,0,0,1-3.348,3.447A30.615,30.615,0,0,1,87.17,386.473a3.4,3.4,0,1,1,6.795-.1A23.812,23.812,0,0,0,118.1,409.807a3.4,3.4,0,0,1,3.447,3.348" fill="#ffbd00"/>
        <path id="Tracé_4292" data-name="Tracé 4292" d="M121.742,426.745a3.4,3.4,0,0,1-3.348,3.447,44.221,44.221,0,0,1-44.814-43.52,3.4,3.4,0,0,1,6.795-.1,37.419,37.419,0,0,0,37.92,36.825,3.4,3.4,0,0,1,3.447,3.348" fill="#ffbd00"/>
        <g id="Groupe_2909" data-name="Groupe 2909" opacity="0.5">
          <g id="Groupe_2908" data-name="Groupe 2908">
            <g id="Groupe_2907" data-name="Groupe 2907" clip-path="url(#clip-path-6)">
              <path id="Tracé_4293" data-name="Tracé 4293" d="M281.186,356.086,205.64,357.4a20.532,20.532,0,0,0-20.173,20.885l1.173,67.631a20.533,20.533,0,0,0,20.886,20.173l4.04-.07a12.713,12.713,0,0,1,7.983,2.528,15.239,15.239,0,0,1,6.02,12.889l-.006.323a5.471,5.471,0,0,0,9.4,3.971l10.163-10.512a33.431,33.431,0,0,1,23.453-10.189l10.438-.181,4.056-.07a20.533,20.533,0,0,0,20.173-20.885l-1.174-67.631a20.532,20.532,0,0,0-20.885-20.173" fill="#afafaf"/>
            </g>
          </g>
        </g>
        <path id="Tracé_4294" data-name="Tracé 4294" d="M265.267,344.2l-78.718,11.667a21.624,21.624,0,0,0-18.22,24.561L178.773,450.9a21.625,21.625,0,0,0,24.562,18.22l4.209-.624a13.4,13.4,0,0,1,8.683,1.553,16.048,16.048,0,0,1,8.043,12.64c.013.113.026.225.038.338a5.763,5.763,0,0,0,10.358,2.865l9.18-12.363a35.211,35.211,0,0,1,23.1-13.838l10.876-1.612,4.226-.626a21.625,21.625,0,0,0,18.221-24.561l-10.445-70.471a21.625,21.625,0,0,0-24.561-18.22" fill="#ffbd00"/>
        <path id="Tracé_4295" data-name="Tracé 4295" d="M230.594,384.287c15.942-2.53,31.417,5.129,41.192,18.6-5.125,15.835-17.469,27.907-33.412,30.437s-31.417-5.129-41.191-18.6c5.124-15.835,17.468-27.907,33.411-30.437" fill="#fff"/>
        <path id="Tracé_4296" data-name="Tracé 4296" d="M232.407,434.077c-13.439,0-26.618-7.009-35.454-19.186l-.085-.117.045-.137c5.322-16.445,18.21-28.182,33.636-30.629s31.316,4.723,41.466,18.713l.085.116-.045.138c-5.321,16.445-18.21,28.182-33.636,30.629a38.4,38.4,0,0,1-6.012.473m-34.91-19.4c10.03,13.739,25.671,20.778,40.832,18.368s27.859-13.937,33.142-30.106c-10.028-13.74-25.668-20.778-40.832-18.369S202.78,398.505,197.5,414.675m33.1-30.387h0Z" fill="#040405"/>
        <path id="Tracé_4297" data-name="Tracé 4297" d="M217.726,430.993c-1.673-.607-1.29-3.359-1.583-5.205a19.654,19.654,0,1,1,38.682.812s-14.815,12.48-37.1,4.393" fill="#0f7a89"/>
        <path id="Tracé_4298" data-name="Tracé 4298" d="M248.04,430.464a10.095,10.095,0,1,0-13.88,3.3" fill="#fff"/>
        <path id="Tracé_4299" data-name="Tracé 4299" d="M197.183,414.724c5.125-15.835,17.469-27.907,33.411-30.437s31.418,5.129,41.192,18.6c-8.943-8.229-23.857-12.357-39.8-9.828s-28.846,11.073-34.8,21.665" fill="#ffbd00"/>
        <path id="Tracé_4300" data-name="Tracé 4300" d="M232.407,434.293c-13.508,0-26.752-7.042-35.628-19.275l-.15-.206.078-.241c5.347-16.523,18.3-28.316,33.809-30.777s31.474,4.743,41.674,18.8l.149.205-.078.242c-5.347,16.523-18.3,28.316-33.809,30.776a38.449,38.449,0,0,1-6.045.476m-34.669-19.656c9.982,13.614,25.5,20.584,40.558,18.193s27.656-13.819,32.935-29.855c-9.984-13.615-25.508-20.584-40.559-18.193s-27.656,13.819-32.934,29.855m32.856-30.349h0Z" fill="#040405"/>
        <path id="Tracé_4301" data-name="Tracé 4301" d="M197.183,415.224a.5.5,0,0,1-.436-.745c6.22-11.063,19.693-19.46,35.161-21.914s30.877,1.361,40.216,9.953a.5.5,0,1,1-.677.737c-9.119-8.391-24.2-12.108-39.383-9.7s-28.371,10.614-34.445,21.416a.5.5,0,0,1-.436.255" fill="#040405"/>
        <path id="Tracé_4302" data-name="Tracé 4302" d="M211.989,428.714a.5.5,0,0,1-.485-.378c-.18-.717-.33-1.45-.447-2.181a24.7,24.7,0,1,1,49.086-3.535.53.53,0,0,1-.506.494.5.5,0,0,1-.494-.506,23.822,23.822,0,0,0-.3-4.036,23.694,23.694,0,1,0-46.8,7.427c.111.7.255,1.4.428,2.093a.5.5,0,0,1-.363.607.515.515,0,0,1-.122.015" fill="#040405"/>
        <g id="Groupe_2912" data-name="Groupe 2912" opacity="0.5">
          <g id="Groupe_2911" data-name="Groupe 2911">
            <g id="Groupe_2910" data-name="Groupe 2910" clip-path="url(#clip-path-7)">
              <path id="Tracé_4303" data-name="Tracé 4303" d="M397.026,379.221,325.047,368.28a19.784,19.784,0,0,0-22.532,16.586l-9.8,64.437a19.785,19.785,0,0,0,16.586,22.533l3.849.585a12.249,12.249,0,0,1,7.177,3.69,14.685,14.685,0,0,1,3.639,13.215c-.019.1-.038.2-.058.305a5.273,5.273,0,0,0,8.289,5.289l11.35-8.347a32.21,32.21,0,0,1,23.923-5.895l9.945,1.511,3.865.588a19.784,19.784,0,0,0,22.532-16.587l9.8-64.436a19.784,19.784,0,0,0-16.586-22.533" fill="#afafaf"/>
            </g>
          </g>
        </g>
        <g id="Groupe_2915" data-name="Groupe 2915" opacity="0.5">
          <g id="Groupe_2914" data-name="Groupe 2914">
            <g id="Groupe_2913" data-name="Groupe 2913" clip-path="url(#clip-path-8)">
              <path id="Tracé_4304" data-name="Tracé 4304" d="M479.377,337.113l-72.62,5.194a19.783,19.783,0,0,0-18.322,21.145l4.65,65.011a19.783,19.783,0,0,0,21.145,18.322l3.883-.277a12.25,12.25,0,0,1,7.813,2.017,14.681,14.681,0,0,1,6.463,12.088c0,.1.008.208.011.311a5.273,5.273,0,0,0,9.251,3.331l9.231-10.643a32.21,32.21,0,0,1,22.035-11.024l10.034-.718,3.9-.278a19.786,19.786,0,0,0,18.323-21.146l-4.65-65.011a19.784,19.784,0,0,0-21.145-18.322" fill="#afafaf"/>
            </g>
          </g>
        </g>
        <path id="Tracé_4305" data-name="Tracé 4305" d="M463.441,326.5l-75.133,15.324a20.837,20.837,0,0,0-16.252,24.58l13.718,67.261a20.837,20.837,0,0,0,24.581,16.252l4.018-.819a12.9,12.9,0,0,1,8.434,1.041,15.467,15.467,0,0,1,8.4,11.743c.018.108.036.216.053.323a5.553,5.553,0,0,0,10.115,2.219l8.19-12.374a33.922,33.922,0,0,1,21.51-14.517l10.38-2.117,4.034-.823a20.835,20.835,0,0,0,16.252-24.58l-13.718-67.261a20.836,20.836,0,0,0-24.58-16.252" fill="#ffbd00"/>
        <path id="Tracé_4306" data-name="Tracé 4306" d="M453.932,422.1c-8.957,0-16.281-8.723-23.377-17.172a108.22,108.22,0,0,0-8.6-9.506c-1.9-1.765-7.683-7.133-19.483,2.643a3.3,3.3,0,0,1-4.207-5.079c13.432-11.128,22.735-7.448,28.176-2.4a114.421,114.421,0,0,1,9.17,10.1c6.353,7.565,12.909,15.392,19.045,14.782,4.363-.431,9.048-5.161,13.925-14.058a3.3,3.3,0,1,1,5.783,3.17c-6.071,11.075-12.305,16.784-19.06,17.452q-.69.068-1.367.067" fill="#0d717f"/>
        <path id="Tracé_4307" data-name="Tracé 4307" d="M467,392.958l-.121-.106-44.423-38.918.277-.315-30.943-27.108a4.46,4.46,0,1,0-5.877,6.709l30.942,27.108.276-.315,44.509,38.994.034.03,9.8,3.959.744-.849Z" fill="#fff"/>
        <path id="Tracé_4308" data-name="Tracé 4308" d="M388.852,325.407a4.439,4.439,0,0,1,2.937,1.1l30.942,27.108-.276.315,44.422,38.918.121.106,5.213,9.189-.744.849-9.794-3.959-.034-.03-44.51-38.994-.276.315-30.942-27.108a4.459,4.459,0,0,1,2.941-7.814m0-1.979a6.438,6.438,0,0,0-4.244,11.281l30.941,27.108a1.976,1.976,0,0,0,1.192.487L460.335,400.5l.04.035a1.964,1.964,0,0,0,.556.341l9.8,3.959a1.979,1.979,0,0,0,2.229-.53l.744-.849a1.98,1.98,0,0,0,.233-2.281l-5.213-9.188a1.961,1.961,0,0,0-.417-.512l-.121-.106-43.506-38.116a1.976,1.976,0,0,0-.64-1.118l-30.942-27.107a6.436,6.436,0,0,0-4.241-1.6" fill="#161715"/>
        <path id="Tracé_4309" data-name="Tracé 4309" d="M385.911,333.221a4.46,4.46,0,1,1,5.878-6.709" fill="#fff"/>
        <path id="Tracé_4310" data-name="Tracé 4310" d="M385.911,333.388a.167.167,0,0,1-.11-.042,4.626,4.626,0,1,1,6.1-6.959.167.167,0,0,1-.22.251,4.293,4.293,0,1,0-5.658,6.458.167.167,0,0,1-.11.292" fill="#040405"/>
        <rect id="Rectangle_1010" data-name="Rectangle 1010" width="8.92" height="41.137" transform="translate(385.911 333.22) rotate(-48.777)" fill="#fff"/>
        <path id="Tracé_4311" data-name="Tracé 4311" d="M416.743,360.454,385.8,333.346l-.014-.235,5.878-6.709.235-.016,30.942,27.108.015.235-5.878,6.709Zm-30.6-27.249,30.691,26.888,5.659-6.458L391.8,326.747Z" fill="#040405"/>
        <rect id="Rectangle_1011" data-name="Rectangle 1011" width="8.082" height="59.174" transform="matrix(0.659, -0.752, 0.752, 0.659, 417.13, 360.013)" fill="#fff"/>
        <path id="Tracé_4312" data-name="Tracé 4312" d="M461.528,399.133l-44.509-38.994-.014-.235,5.325-6.079.235-.015,44.51,38.994.015.235-5.327,6.079ZM417.365,360l44.258,38.774,5.106-5.827L422.47,354.17Z" fill="#040405"/>
        <path id="Tracé_4313" data-name="Tracé 4313" d="M472.211,402.147l-.744.849-9.794-3.959L467,392.958Z" fill="#fff"/>
        <path id="Tracé_4314" data-name="Tracé 4314" d="M471.28,403.46l-9.794-3.959-.189-.793,5.325-6.079.812.083,5.212,9.189-.059.576-.743.849Zm-8.767-4.622,8.813,3.562.276-.315-4.692-8.268Z" fill="#040405"/>
        <rect id="Rectangle_1012" data-name="Rectangle 1012" width="4.46" height="47.133" transform="matrix(0.659, -0.752, 0.752, 0.659, 389.251, 333.184)" fill="#fff"/>
        <path id="Tracé_4315" data-name="Tracé 4315" d="M424.375,364.618l-35.452-31.059-.047-.706,2.938-3.355.706-.046,35.452,31.059.047.706-2.939,3.355Zm-34.418-31.482,34.7,30.4,2.28-2.6-34.7-30.4Z" fill="#040405"/>
        <path id="Tracé_4316" data-name="Tracé 4316" d="M383.822,365.358l-76.662-1.615a20.836,20.836,0,0,0-21.271,20.394l-1.446,68.63a20.838,20.838,0,0,0,20.394,21.271l4.1.086a12.9,12.9,0,0,1,8,2.875,15.466,15.466,0,0,1,5.6,13.306l-.018.326a5.553,5.553,0,0,0,9.377,4.394l10.716-10.265a33.927,33.927,0,0,1,24.18-9.418l10.592.224,4.116.086a20.836,20.836,0,0,0,21.271-20.393l1.445-68.63a20.836,20.836,0,0,0-20.393-21.271" fill="#3ab0bd"/>
        <path id="Tracé_4317" data-name="Tracé 4317" d="M325.05,424.783a9.569,9.569,0,1,1-9.088-10.027,9.569,9.569,0,0,1,9.088,10.027" fill="#ffbd00"/>
        <path id="Tracé_4318" data-name="Tracé 4318" d="M353.444,426.177a9.569,9.569,0,1,1-9.088-10.027,9.569,9.569,0,0,1,9.088,10.027" fill="#ffbd00"/>
        <path id="Tracé_4319" data-name="Tracé 4319" d="M381.837,427.572a9.569,9.569,0,1,1-9.088-10.027,9.569,9.569,0,0,1,9.088,10.027" fill="#ffbd00"/>
      </g>
    </g>
  </g>
</svg>
