 <svg  version="1.0" xmlns="http://www.w3.org/2000/svg"  width="300.000000pt" height="242.000000pt" viewBox="0 0 300.000000 242.000000"  preserveAspectRatio="xMidYMid meet">  <g transform="translate(0.000000,242.000000) scale(0.100000,-0.100000)" fill="#988210" stroke="none"> <path d="M1418 1877 c-21 -11 -38 -23 -38 -27 0 -5 -9 -12 -20 -15 -30 -10 -42 -39 -29 -69 9 -19 18 -24 33 -21 12 3 27 1 35 -4 11 -7 10 -12 -2 -32 -9 -13 -15 -40 -13 -59 3 -33 5 -35 37 -35 19 0 44 -7 57 -16 25 -18 61 -14 69 7 3 8 18 12 41 10 69 -7 80 17 58 119 -14 62 -82 152 -119 157 -44 5 -76 1 -109 -15z m126 -28 c20 -12 36 -25 36 -30 0 -5 11 -27 24 -48 14 -21 22 -41 19 -45 -3 -3 0 -12 7 -21 10 -12 10 -15 0 -15 -7 0 -10 -7 -6 -15 19 -47 18 -49 -14 -20 -22 20 -31 24 -27 13 4 -10 10 -26 14 -35 5 -14 1 -13 -19 4 l-24 23 -24 -32 c-22 -30 -24 -30 -37 -12 -8 10 -18 26 -23 34 -7 13 -13 11 -34 -9 -32 -30 -47 -20 -19 12 31 34 40 55 15 33 -30 -26 -41 -12 -14 17 12 13 22 29 22 36 0 11 3 11 17 0 15 -13 15 -12 4 9 -9 16 -9 22 0 22 9 0 9 3 0 14 -13 16 -2 27 44 45 l30 11 -35 -5 c-18 -3 -38 -11 -42 -18 -6 -9 -8 -9 -8 1 0 8 -8 10 -26 6 -24 -6 -25 -5 -15 14 20 38 81 43 135 11z m-144 -41 c0 -6 3 -8 6 -5 10 10 44 -12 39 -26 -3 -7 -25 -12 -55 -12 -41 0 -50 3 -50 18 0 10 10 22 23 27 30 12 37 12 37 -2z"/> <path d="M1455 1850 c-8 -13 5 -13 25 0 13 8 13 10 -2 10 -9 0 -20 -4 -23 -10z"/> <path d="M1489 1786 c6 -8 22 -16 34 -19 22 -6 22 -6 2 10 -20 15 -20 15 3 8 13 -4 22 -2 22 4 0 6 -16 11 -36 11 -30 0 -34 -2 -25 -14z"/> <path d="M725 1862 c-14 -15 -25 -31 -25 -35 0 -5 -11 -6 -24 -3 -36 9 -46 -13 -51 -115 -3 -52 -7 -112 -9 -134 -3 -24 -1 -42 6 -46 9 -6 8 -12 -1 -23 -9 -11 -11 -27 -5 -53 4 -21 7 -41 6 -45 -1 -5 3 -8 9 -8 6 0 4 -7 -4 -15 -12 -11 -13 -24 -5 -62 6 -26 10 -68 9 -91 0 -28 9 -64 24 -96 18 -38 23 -63 20 -91 -5 -39 17 -86 68 -142 16 -18 17 -25 8 -37 -21 -25 86 -168 143 -189 11 -5 16 -13 12 -23 -13 -35 32 -80 136 -134 16 -9 25 -20 21 -24 -4 -5 2 -7 14 -4 12 3 30 0 40 -8 36 -27 166 -7 181 29 5 10 88 9 135 -2 29 -7 41 -6 52 6 21 21 19 54 -5 60 -11 3 -17 9 -14 14 3 5 -4 9 -16 9 -11 0 -37 7 -58 16 -20 8 -39 15 -41 14 -2 -1 -15 27 -29 62 -32 80 -151 203 -193 199 -22 -2 -29 5 -47 47 -19 43 -71 97 -73 75 0 -5 -8 23 -19 60 -10 38 -25 74 -33 80 -8 7 -17 30 -20 53 -2 23 -11 56 -21 74 -9 18 -16 51 -16 72 0 22 -4 47 -9 57 -6 10 -11 41 -12 69 -2 29 -6 52 -10 52 -4 0 -3 16 1 34 4 19 5 38 1 41 -3 4 -7 48 -7 98 -2 115 -1 107 -23 107 -11 0 -28 14 -40 34 -29 46 -46 50 -76 18z m51 -28 c5 -26 2 -45 -10 -64 -9 -16 -16 -41 -15 -57 1 -29 3 -25 13 18 5 23 69 71 79 59 2 -3 0 -19 -4 -36 -6 -20 -23 -41 -48 -57 l-40 -27 0 -100 c0 -66 3 -99 10 -94 6 3 8 18 5 32 -8 35 11 68 52 94 l32 20 0 -27 c0 -34 -21 -73 -59 -109 -25 -24 -31 -38 -31 -70 0 -23 5 -48 10 -56 6 -10 9 1 7 38 -2 49 1 56 31 83 38 34 52 37 52 10 0 -45 -15 -82 -46 -115 -28 -30 -34 -43 -33 -79 1 -23 5 -53 10 -67 6 -17 7 -7 3 32 -5 54 -4 58 32 97 20 23 41 41 47 41 6 0 8 -22 4 -60 -4 -49 -11 -67 -36 -95 -23 -27 -31 -45 -30 -73 1 -41 37 -150 38 -116 1 12 -6 40 -14 63 -13 37 -13 47 0 74 17 39 49 77 64 77 7 0 11 -26 11 -71 0 -55 -5 -77 -20 -99 -33 -47 -35 -81 -7 -136 27 -51 56 -94 57 -82 0 4 -14 35 -32 68 -28 55 -30 63 -20 98 7 20 23 50 36 67 l24 30 16 -54 c20 -68 20 -111 1 -158 -26 -62 -6 -102 94 -189 32 -28 41 -33 32 -17 -6 13 -25 33 -42 45 -67 50 -87 128 -50 197 l18 34 26 -44 c43 -73 57 -116 57 -173 0 -44 5 -60 26 -85 26 -31 174 -112 203 -110 9 0 -21 18 -65 39 -56 26 -90 49 -109 74 -29 38 -43 104 -31 152 7 28 8 27 86 -53 55 -57 82 -93 91 -122 16 -54 64 -95 128 -111 55 -13 66 -37 15 -32 -102 9 -131 6 -185 -17 -69 -29 -122 -24 -205 20 -65 34 -134 86 -134 101 0 7 33 9 94 6 85 -3 101 -7 179 -46 47 -23 96 -42 109 -42 15 0 4 8 -32 23 -31 13 -82 38 -115 57 -54 32 -68 35 -142 36 -73 0 -85 3 -120 29 -52 38 -133 129 -133 149 0 7 55 -3 113 -21 32 -10 70 -35 117 -79 96 -88 108 -81 14 9 -85 81 -102 91 -159 102 -51 9 -112 70 -142 143 l-22 53 22 -7 c72 -22 128 -65 157 -120 11 -23 30 -50 41 -60 13 -11 4 12 -24 61 -39 70 -51 83 -94 105 -28 14 -58 32 -68 40 -19 16 -48 76 -59 122 -6 27 -5 27 21 17 45 -17 89 -56 102 -88 6 -17 16 -44 22 -61 6 -16 15 -30 20 -30 11 0 -37 130 -54 147 -7 8 -29 22 -48 31 -38 19 -79 88 -79 134 l0 27 35 -20 c42 -25 75 -65 75 -90 0 -22 19 -73 25 -67 7 7 -22 117 -36 134 -7 9 -23 20 -36 25 -29 11 -54 50 -63 99 -9 49 2 51 51 10 28 -22 38 -39 42 -71 3 -23 9 -45 14 -50 6 -6 6 12 1 43 -4 29 -8 124 -9 212 0 103 -4 165 -12 177 -9 15 -8 26 7 54 24 44 33 44 42 -1z m-68 -67 c17 -18 22 -34 20 -56 l-3 -32 -33 28 c-23 19 -35 40 -39 67 -6 35 -5 38 13 28 10 -6 29 -21 42 -35z m3 -94 c6 -6 12 -29 14 -51 l4 -40 -34 19 c-32 19 -55 61 -55 101 0 19 1 19 31 1 17 -10 35 -23 40 -30z m129 0 c-6 -24 -21 -48 -42 -66 -32 -27 -33 -27 -36 -6 -6 38 8 69 41 89 44 27 46 26 37 -17z m-125 -116 c8 -12 15 -37 15 -55 l0 -34 -32 19 c-39 23 -58 56 -58 101 l0 33 30 -21 c16 -12 36 -31 45 -43z"/> <path d="M870 776 c0 -2 7 -7 16 -10 8 -3 12 -2 9 4 -6 10 -25 14 -25 6z"/> <path d="M1205 701 c-6 -11 13 -26 22 -17 4 3 1 6 -6 6 -7 0 -9 5 -6 10 3 6 4 10 1 10 -3 0 -7 -4 -11 -9z"/> <path d="M2287 1872 c-8 -9 -17 -26 -19 -37 -2 -13 -12 -21 -30 -23 -30 -4 -45 -40 -28 -72 6 -12 7 -21 0 -25 -5 -3 -10 -29 -10 -58 -1 -55 -6 -132 -10 -144 -1 -5 -1 -23 0 -40 1 -18 -5 -47 -14 -64 -9 -17 -13 -36 -9 -42 4 -6 1 -7 -7 -2 -9 6 -11 4 -4 -6 13 -22 10 -52 -7 -72 -9 -9 -17 -38 -17 -63 -2 -31 -10 -56 -27 -78 -13 -18 -29 -55 -36 -84 -6 -29 -16 -52 -23 -52 -13 0 -50 -39 -53 -58 -6 -27 -41 -73 -48 -62 -18 29 -162 -114 -207 -205 -28 -59 -59 -85 -100 -85 -31 0 -68 -30 -68 -56 0 -25 33 -50 51 -39 5 4 22 9 37 11 24 4 40 4 100 1 6 0 12 -4 12 -9 0 -4 8 -8 19 -8 10 0 24 -7 31 -15 14 -17 100 -21 128 -5 19 11 73 33 84 34 4 1 32 21 62 44 52 42 90 102 64 102 -7 0 -3 6 7 14 11 8 23 12 27 9 5 -2 11 3 14 11 3 9 12 16 20 16 8 0 14 4 14 8 0 5 8 17 18 28 26 27 67 103 60 110 -3 3 -20 -15 -37 -40 -75 -108 -127 -139 -236 -141 -71 0 -86 -4 -130 -31 -49 -29 -97 -54 -146 -73 -23 -9 -23 -10 -2 -10 11 -1 61 18 109 41 80 38 96 43 181 46 52 3 93 0 93 -5 0 -13 -88 -78 -147 -108 -77 -38 -138 -43 -194 -15 -47 25 -107 30 -176 17 -35 -7 -43 -6 -43 6 0 10 17 19 48 27 52 12 122 62 122 86 0 32 41 92 108 158 l70 68 7 -40 c3 -22 2 -56 -3 -76 -20 -72 -51 -98 -181 -153 -18 -8 -31 -16 -28 -19 8 -8 122 42 170 75 50 34 66 68 66 141 0 31 11 66 37 117 20 40 40 73 44 73 12 0 40 -77 40 -108 0 -35 -28 -80 -82 -130 -23 -22 -40 -43 -37 -46 3 -3 36 26 73 64 75 78 71 59 50 199 -7 45 10 146 26 156 16 10 53 -57 58 -105 3 -38 -1 -54 -22 -89 -15 -23 -25 -48 -23 -54 2 -6 21 23 41 65 l38 77 -32 66 c-29 60 -31 70 -25 128 l8 62 39 -45 c42 -47 42 -46 24 -160 -5 -30 -3 -27 13 15 26 67 25 98 -3 132 -12 15 -28 38 -35 50 -13 25 -15 123 -3 123 14 0 60 -54 71 -82 6 -17 7 -38 0 -60 -12 -42 -12 -55 0 -42 6 5 17 57 26 116 17 117 14 135 -29 163 -29 19 -49 63 -44 99 l3 27 38 -31 c31 -27 37 -38 38 -73 l1 -42 9 32 c12 40 -3 80 -35 95 -25 11 -56 62 -56 92 0 23 11 20 54 -15 24 -21 36 -38 33 -49 -2 -10 -1 -24 4 -31 14 -24 8 134 -7 163 -15 30 -18 76 -6 96 7 10 12 8 24 -5 21 -23 33 -69 19 -77 -6 -4 -10 -61 -10 -146 0 -77 -3 -145 -7 -151 -4 -8 -3 -9 4 -5 7 4 12 22 12 39 1 37 11 51 61 89 l36 27 -8 -45 c-11 -60 -23 -78 -63 -102 -20 -12 -37 -31 -40 -44 -12 -58 -14 -98 -5 -93 5 4 9 22 9 42 0 29 8 44 40 75 48 45 60 47 60 11 -1 -46 -23 -83 -65 -112 -45 -30 -60 -56 -70 -121 -4 -33 -3 -41 4 -30 6 8 11 24 11 35 0 37 34 85 79 112 l44 26 -8 -39 c-12 -67 -32 -102 -67 -120 -52 -26 -77 -54 -92 -103 -8 -25 -18 -55 -22 -65 -5 -13 -4 -17 4 -13 6 4 18 29 27 56 8 26 28 59 43 73 29 27 91 62 98 55 7 -7 -26 -91 -51 -129 -17 -26 -37 -41 -66 -49 -22 -7 -49 -24 -60 -38 -22 -28 -89 -140 -89 -148 0 -16 35 27 56 68 13 26 39 59 57 73 39 30 117 60 117 45 0 -24 -62 -129 -90 -152 -17 -15 -47 -29 -68 -32 -55 -9 -89 -31 -165 -107 -84 -84 -71 -91 15 -8 61 58 140 100 188 100 19 0 70 46 70 63 0 4 4 6 8 3 9 -5 51 82 58 119 2 13 0 27 -6 30 -6 4 -1 23 14 48 25 42 36 103 23 124 -4 7 -1 29 8 49 18 44 19 86 3 102 -9 9 -8 16 3 29 10 11 14 33 12 58 -5 64 -5 69 -4 95 1 14 -1 52 -4 85 -3 33 -7 82 -9 109 -5 57 -16 72 -42 58 -15 -8 -22 -5 -36 18 -25 42 -52 54 -71 32z m123 -107 c-5 -24 -20 -49 -37 -62 l-28 -23 -3 21 c-6 38 8 69 40 89 18 11 33 18 34 17 2 -1 -1 -20 -6 -42z m-135 3 c15 -13 28 -38 31 -56 l5 -33 -30 16 c-28 14 -61 60 -61 85 0 17 27 11 55 -12z m145 -84 c0 -34 -14 -59 -50 -84 l-30 -21 0 36 c0 27 8 44 29 66 36 36 51 37 51 3z m-136 -230 c3 -9 6 -38 6 -64 l0 -49 -29 27 c-39 37 -51 63 -51 112 l0 41 34 -26 c19 -14 37 -33 40 -41z"/> <path d="M1082 1808 c-11 -15 -24 -53 -27 -83 -1 -11 -3 -24 -4 -29 0 -6 -7 -2 -13 6 -13 17 -68 14 -68 -3 0 -5 -7 -9 -15 -9 -9 0 -20 -12 -26 -27 -6 -16 -17 -42 -24 -58 -11 -27 -10 -34 5 -53 13 -16 16 -33 13 -67 -4 -30 -2 -45 6 -45 6 0 11 4 11 9 0 5 10 11 22 13 14 2 25 12 29 28 5 21 7 22 14 8 10 -25 -1 -48 -24 -48 -10 0 -29 -9 -42 -19 -23 -19 -23 -20 -5 -34 13 -10 16 -16 7 -21 -6 -4 -8 -13 -4 -19 4 -7 9 -27 10 -45 1 -19 6 -39 12 -46 5 -6 11 -23 13 -36 5 -35 49 -124 57 -113 3 5 19 17 34 27 23 14 27 23 23 41 -3 13 -1 27 6 31 6 4 8 3 4 -4 -6 -10 23 -70 51 -103 12 -14 12 -19 -2 -33 -9 -9 -21 -16 -25 -16 -5 0 -17 -11 -26 -25 -13 -20 -14 -28 -4 -40 7 -8 16 -12 21 -9 5 3 6 -1 4 -9 -3 -7 14 -31 40 -55 25 -22 45 -48 45 -56 0 -9 6 -16 13 -16 17 0 109 -59 120 -77 4 -7 21 -20 37 -28 27 -14 30 -14 38 2 5 10 8 23 5 28 -2 6 11 21 28 34 37 28 60 16 42 -21 -22 -45 -23 -61 -8 -84 18 -29 70 -30 89 -2 9 12 16 15 20 9 5 -7 16 -5 34 7 14 9 26 16 27 14 1 -13 74 32 82 51 10 21 8 30 -14 62 -20 30 -23 39 -12 46 8 5 15 4 17 -1 2 -6 8 -8 13 -4 5 3 9 -4 9 -15 0 -21 27 -41 55 -41 22 0 144 113 168 157 12 21 -1 30 -16 11 -11 -14 -16 -13 -49 12 -21 15 -35 30 -31 33 3 3 21 -5 39 -20 31 -23 34 -24 40 -8 10 26 -10 50 -40 48 -15 -1 -24 2 -21 8 12 18 54 9 73 -16 12 -15 23 -21 27 -16 6 11 -22 61 -34 61 -4 0 -16 7 -27 16 -10 8 -14 13 -8 10 7 -3 14 4 17 15 5 17 9 19 25 10 11 -6 23 -6 28 -1 5 5 17 3 28 -6 11 -7 17 -17 13 -20 -4 -4 -15 -1 -24 7 -16 12 -15 11 1 -8 21 -25 36 -22 36 7 0 10 7 21 16 24 9 4 14 13 10 21 -3 8 -1 15 5 15 6 0 9 7 5 15 -3 8 -1 15 4 15 6 0 10 5 10 12 0 6 -8 4 -20 -7 -13 -12 -27 -15 -45 -11 -35 9 -31 23 5 18 23 -3 30 0 30 12 0 9 7 16 15 16 21 0 34 30 41 94 4 31 12 56 18 56 6 0 4 5 -4 10 -13 8 -13 13 -2 30 7 11 10 25 7 30 -11 17 -14 49 -6 54 4 3 7 20 5 38 -1 18 3 47 9 65 8 25 7 34 -4 46 -22 21 -59 31 -59 16 0 -8 -5 -6 -13 5 -12 16 -14 16 -26 2 -8 -9 -10 -16 -7 -16 4 0 2 -9 -4 -19 -5 -11 -7 -22 -3 -24 5 -3 8 -39 8 -81 0 -71 5 -89 20 -66 3 6 10 10 16 10 18 0 8 -15 -24 -35 l-32 -21 1 77 c1 98 -26 253 -47 275 -15 14 -20 14 -41 3 -14 -8 -47 -25 -74 -39 -27 -14 -51 -28 -54 -32 -3 -3 -23 -13 -46 -22 -22 -9 -47 -29 -57 -45 -16 -27 -16 -29 1 -45 14 -12 21 -13 30 -4 7 7 12 8 12 3 0 -4 8 -1 18 7 9 8 36 23 60 34 23 10 42 22 42 27 0 4 5 5 10 2 6 -3 10 -1 10 4 0 6 11 11 23 11 28 0 29 -7 31 -175 1 -117 -8 -185 -25 -185 -6 0 -7 5 -4 10 7 12 -15 13 -31 2 -13 -9 -27 -62 -16 -62 4 0 8 -9 9 -20 l2 -21 -26 21 c-18 14 -30 17 -38 10 -6 -5 -15 -7 -18 -3 -4 3 11 22 33 40 22 19 40 40 40 47 0 7 5 17 12 24 7 7 14 29 15 50 2 20 5 53 6 72 2 19 2 41 -1 48 -7 21 -40 13 -78 -20 -28 -25 -47 -33 -78 -34 -67 -2 -96 -15 -96 -42 0 -9 -11 -22 -24 -28 -23 -11 -24 -9 -30 27 -4 23 -14 44 -26 51 -11 7 -20 19 -20 26 0 7 -4 10 -10 7 -5 -3 -10 0 -10 9 0 18 -31 14 -41 -5 -4 -8 -10 -25 -13 -39 -3 -14 -11 -34 -19 -44 -11 -15 -17 -17 -28 -8 -30 26 -91 62 -113 68 -27 6 -86 -30 -86 -53 0 -8 -4 -12 -9 -8 -12 7 -51 -34 -51 -54 0 -9 -7 -24 -14 -34 -13 -17 -14 -17 -20 0 -7 16 -8 238 -2 290 3 32 13 38 33 21 35 -28 76 -51 68 -37 -3 8 0 6 8 -3 8 -10 19 -18 26 -18 6 0 11 -4 11 -10 0 -14 33 -13 48 2 19 19 15 50 -6 44 -10 -4 -27 1 -38 9 -10 8 -14 15 -7 15 6 0 15 -4 18 -10 8 -13 25 -13 25 -1 0 5 -9 13 -20 16 -11 4 -17 11 -14 17 5 7 2 8 -6 3 -7 -4 -15 -3 -19 2 -9 15 -133 93 -147 93 -6 0 -16 -6 -22 -12z m42 -16 c3 -5 35 -26 71 -47 36 -21 61 -42 55 -45 -6 -4 5 -15 25 -26 30 -16 46 -34 30 -34 -2 0 -45 25 -96 55 -50 31 -93 55 -94 53 -8 -9 -25 -156 -25 -216 0 -86 23 -224 50 -296 52 -138 170 -268 305 -336 l82 -42 81 41 c215 112 336 310 349 572 6 111 -3 246 -17 268 -6 11 -31 1 -114 -43 -58 -31 -110 -56 -115 -56 -5 0 -7 8 -4 18 4 16 221 136 248 137 21 0 37 -112 37 -260 1 -122 -3 -164 -20 -227 -56 -206 -176 -354 -362 -447 -79 -39 -81 -40 -118 -24 -82 34 -217 123 -187 123 4 0 -12 21 -37 48 -86 92 -134 182 -168 312 -10 41 -19 66 -19 55 -2 -48 52 -199 92 -258 11 -16 17 -30 14 -33 -14 -14 -88 146 -108 234 -15 67 -29 224 -21 236 4 6 10 -27 13 -74 5 -83 5 -81 7 39 1 68 7 153 13 188 10 58 13 63 33 58 21 -6 21 -6 1 10 -17 14 -20 14 -29 -2 -5 -10 -15 -58 -22 -108 l-14 -90 5 75 c6 92 21 150 40 150 8 0 16 -4 19 -8z m936 -92 c0 -5 -5 -10 -11 -10 -5 0 -7 5 -4 10 3 6 8 10 11 10 2 0 4 -4 4 -10z m-1030 -7 c0 -11 -81 -56 -88 -49 -6 7 -8 6 38 34 37 23 50 27 50 15z m1100 -28 c8 -9 8 -15 2 -15 -6 0 -12 5 -14 11 -3 8 -14 6 -36 -5 -33 -17 -46 -5 -14 13 25 15 48 13 62 -4z m-1087 -21 c-4 -11 -9 -12 -19 -3 -18 15 -18 14 5 16 14 1 18 -3 14 -13z m1077 -25 c0 -6 -9 -8 -20 -4 -12 4 -27 1 -35 -5 -15 -12 -22 0 -8 13 11 11 63 8 63 -4z m-1100 -10 c0 -6 -16 -8 -40 -6 -57 5 -62 17 -7 17 26 0 47 -5 47 -11z m-49 -33 c16 8 29 11 29 6 0 -5 -12 -14 -26 -20 -30 -14 -64 0 -63 26 0 14 3 13 16 -5 14 -21 17 -22 44 -7z m1149 5 c0 -5 -16 -11 -35 -13 -34 -4 -43 1 -28 15 10 10 63 8 63 -2z m-1083 -71 c-1 -38 -6 -70 -10 -70 -5 0 -8 12 -7 28 4 59 1 70 -19 65 -10 -3 -22 1 -26 8 -5 8 -4 10 4 5 12 -8 51 1 50 12 -2 12 1 22 6 22 2 0 4 -31 2 -70z m831 31 c-10 -16 -10 -25 -1 -40 10 -15 9 -20 -2 -25 -18 -7 -20 -46 -2 -46 7 -1 5 -6 -5 -14 -10 -7 -18 -20 -18 -28 0 -9 -10 -18 -21 -21 -15 -4 -20 -11 -16 -22 5 -12 1 -14 -18 -9 -17 4 -25 2 -25 -6 0 -9 -7 -7 -20 5 -26 23 -26 11 0 -15 11 -11 22 -32 25 -47 13 -63 21 -78 40 -78 13 0 21 8 23 23 2 12 -2 22 -8 22 -7 0 -10 -8 -7 -20 7 -27 -10 -26 -18 1 -4 13 -1 27 8 36 12 13 16 12 31 -2 9 -9 16 -24 16 -32 0 -14 3 -13 21 3 19 17 21 26 15 78 -6 54 -5 58 9 40 8 -10 15 -36 15 -58 0 -33 -7 -45 -46 -82 -25 -24 -50 -44 -55 -44 -6 0 -24 13 -40 29 -32 32 -43 27 -33 -16 4 -22 3 -25 -5 -13 -9 13 -11 13 -11 0 0 -9 -9 -16 -20 -17 -11 -1 -20 3 -20 9 0 5 9 21 20 35 11 14 20 32 20 40 0 8 5 11 10 8 6 -3 10 4 10 16 0 18 -2 19 -15 9 -8 -7 -25 -10 -37 -7 -12 4 -27 2 -34 -4 -8 -6 -13 -3 -17 11 -7 26 7 34 33 20 12 -6 26 -9 33 -6 7 2 4 5 -5 5 -11 1 -20 12 -24 29 -10 46 -13 52 -28 52 -9 0 -12 -7 -9 -21 5 -17 2 -20 -13 -17 -26 5 -24 41 4 53 27 12 29 25 2 20 -14 -3 -20 2 -20 16 0 26 36 25 50 -2 11 -20 12 -20 31 -3 24 21 24 36 2 33 -32 -3 -36 1 -22 18 10 11 10 14 2 9 -9 -4 -13 -1 -13 9 0 11 5 15 15 11 8 -3 26 -1 40 4 19 7 25 6 25 -4 0 -7 3 -27 6 -44 5 -25 1 -36 -20 -57 -34 -33 -30 -38 12 -18 37 18 49 51 31 84 -10 20 -9 25 11 38 12 9 38 30 58 48 41 35 50 36 30 4z m-350 -6 c7 -14 12 -36 13 -48 0 -21 1 -21 11 3 l10 25 10 -30 c10 -35 4 -101 -13 -139 -16 -34 -32 -34 -19 0 13 32 13 47 1 39 -5 -3 -9 8 -9 23 2 52 -24 72 -30 24 -6 -48 -6 -76 2 -97 7 -17 5 -17 -13 4 -33 37 -36 68 -12 125 11 28 21 61 21 74 0 30 14 28 28 -3z m602 5 c0 -5 -16 -10 -36 -10 -21 0 -33 4 -29 10 3 6 19 10 36 10 16 0 29 -4 29 -10z m-1145 -40 c3 -5 0 -10 -9 -10 -8 0 -17 -6 -19 -12 -3 -7 -6 -3 -6 10 -1 22 22 31 34 12z m365 -5 c0 -8 -7 -15 -15 -15 -8 0 -15 -4 -15 -9 0 -5 16 -5 37 0 41 9 49 6 38 -11 -4 -7 -18 -9 -31 -6 -13 4 -24 2 -24 -3 0 -6 -8 -8 -17 -5 -13 4 -11 0 5 -12 15 -11 22 -27 22 -50 0 -37 14 -51 34 -35 10 9 15 7 19 -9 3 -11 1 -20 -5 -20 -5 0 -6 -4 -3 -10 3 -5 -1 -10 -9 -10 -8 0 -18 5 -21 11 -26 41 -85 14 -85 -40 0 -20 -8 -36 -25 -49 -21 -17 -23 -22 -10 -32 8 -6 23 -9 35 -5 14 5 20 2 20 -10 0 -36 -70 -25 -84 14 -3 9 -9 22 -12 29 -3 7 1 12 10 12 12 0 14 7 9 33 -3 17 -10 34 -15 35 -14 6 -9 33 13 69 12 18 18 40 15 48 -10 26 -23 16 -29 -21 -7 -40 -32 -74 -55 -74 -12 0 -12 3 -2 15 7 8 9 15 4 15 -5 0 2 7 14 16 12 8 22 26 22 38 0 33 25 53 45 36 21 -17 19 -47 -6 -87 -24 -38 -21 -50 10 -33 14 7 22 22 23 43 2 52 -3 81 -15 89 -9 6 -9 8 1 8 6 0 12 9 12 19 0 22 13 29 58 30 22 1 32 -4 32 -14z m771 -35 c-28 -24 -35 -24 -50 -6 -9 11 -7 12 13 9 13 -3 27 0 30 6 4 6 13 11 19 11 7 -1 1 -10 -12 -20z m-700 -12 c1 -7 1 -17 0 -22 -1 -4 4 -15 11 -24 12 -13 10 -14 -10 -3 -23 12 -47 7 -37 -9 3 -4 -2 -10 -10 -14 -22 -8 -19 20 7 54 23 32 37 38 39 18z m-401 -32 c0 -8 7 -13 17 -12 10 0 19 -10 24 -27 6 -22 3 -29 -13 -38 -32 -17 -78 -29 -78 -19 0 7 39 22 64 24 10 1 21 56 11 56 -3 0 -14 -9 -25 -20 -11 -11 -29 -20 -40 -20 -30 0 -24 18 8 22 35 4 26 23 -10 22 -16 -1 -28 2 -28 6 0 5 12 11 28 13 15 2 30 5 35 6 4 0 7 -5 7 -13z m1089 5 c16 -10 7 -47 -13 -54 -8 -3 -22 1 -33 8 -17 13 -16 14 11 12 17 -1 31 4 34 12 3 10 -3 13 -25 9 -17 -2 -35 2 -42 9 -9 10 -5 13 21 13 18 0 39 -4 47 -9z m-663 -66 c3 -14 10 -22 15 -19 18 11 8 -15 -10 -28 -17 -12 -19 -19 -9 -54 5 -21 11 -48 12 -59 2 -11 6 -34 10 -50 4 -17 8 -67 10 -111 4 -85 19 -124 48 -124 31 0 45 27 52 102 4 40 9 100 12 133 3 32 11 71 18 85 16 32 6 72 -21 85 -18 9 -19 13 -8 28 12 16 13 16 19 -8 4 -14 13 -25 20 -25 9 0 12 -7 9 -20 -8 -31 21 -68 51 -65 31 4 34 -14 6 -38 -13 -11 -18 -22 -13 -30 4 -6 8 -16 8 -22 0 -5 16 -11 37 -13 28 -2 40 2 52 20 9 12 16 17 16 10 0 -7 13 -12 29 -12 17 0 33 -5 37 -12 4 -7 3 -8 -4 -4 -7 4 -12 1 -12 -8 0 -8 -6 -21 -14 -28 -102 -99 -141 -130 -199 -161 -67 -35 -69 -36 -114 -22 -25 8 -71 30 -102 51 -70 46 -154 131 -145 146 4 6 3 8 -4 4 -6 -3 -13 -2 -17 4 -6 9 8 15 29 11 14 -3 46 10 44 17 -1 4 3 17 10 28 6 12 8 25 4 28 -4 4 6 6 22 4 39 -4 74 39 57 71 -9 17 -9 21 3 21 8 0 16 13 18 30 3 17 2 30 -2 30 -4 0 -7 7 -7 15 0 25 26 17 33 -10z m588 0 c-4 -8 -7 -15 -9 -15 -2 0 -5 7 -9 15 -3 9 0 15 9 15 9 0 12 -6 9 -15z m61 -15 c11 -5 15 -9 8 -9 -6 -1 -9 -9 -6 -20 5 -21 -11 -36 -29 -25 -8 5 -6 9 6 14 18 6 18 7 0 25 -19 18 -19 18 -22 -1 -6 -28 -22 -42 -22 -18 0 38 26 51 65 34z m-1057 -45 c-18 -18 -58 -29 -58 -16 0 6 11 13 25 17 14 3 25 10 25 16 0 5 5 6 11 2 8 -4 7 -10 -3 -19z m56 -56 c4 -8 0 -5 -8 5 -9 11 -16 31 -15 45 1 24 2 24 8 -5 4 -17 11 -37 15 -45z m236 61 c12 -8 13 -13 3 -30 -7 -11 -13 -22 -13 -25 0 -11 19 -4 35 12 14 13 18 14 25 3 15 -24 -11 -49 -44 -43 -55 9 -60 12 -46 28 7 8 9 22 6 31 -11 29 6 42 34 24z m-144 -16 c-3 -8 -2 -12 4 -9 13 8 13 -15 0 -35 -7 -11 -11 -9 -19 13 -15 38 -14 47 5 47 10 0 14 -5 10 -16z m404 -12 c0 -15 -6 -34 -12 -40 -7 -7 -13 -29 -14 -50 -8 -150 -31 -269 -48 -251 -5 5 -28 193 -30 251 -1 21 -7 43 -14 50 -6 6 -12 25 -12 40 0 28 0 28 65 28 65 0 65 0 65 -28z m-530 -1 c0 -5 -6 -13 -12 -19 -20 -15 -58 -24 -58 -14 0 6 11 13 25 16 14 4 25 11 25 16 0 6 5 10 10 10 6 0 10 -4 10 -9z m980 0 c0 -5 -7 -11 -15 -15 -15 -5 -20 5 -8 17 9 10 23 9 23 -2z m-44 -59 c-12 -12 -18 8 -10 35 l8 28 4 -28 c2 -16 1 -31 -2 -35z m-918 -13 c2 -19 -4 -28 -23 -37 -30 -14 -36 -15 -33 -4 0 4 -2 15 -7 25 -8 20 10 46 22 32 5 -4 3 -10 -4 -12 -7 -2 -9 -11 -6 -18 4 -11 10 -12 25 -4 15 8 17 14 9 22 -15 15 -14 30 2 25 6 -3 13 -16 15 -29z m982 -19 c0 -7 -20 -10 -50 -9 -27 2 -50 6 -50 11 0 4 23 8 50 8 28 0 50 -5 50 -10z m-757 -220 c-5 -6 -103 102 -103 114 0 5 24 -17 54 -50 30 -32 52 -61 49 -64z m-150 70 c-21 -16 -40 -26 -43 -23 -7 7 63 62 73 56 4 -3 -9 -18 -30 -33z m71 -22 c18 -26 20 -38 6 -38 -5 0 -10 7 -10 15 0 21 -27 30 -45 15 -17 -14 -20 -46 -5 -55 5 -3 19 -1 30 5 23 12 27 -2 6 -19 -24 -20 -66 12 -66 50 0 14 38 49 54 49 8 0 22 -10 30 -22z m646 2 c0 -5 -4 -10 -10 -10 -5 0 -10 5 -10 10 0 6 5 10 10 10 6 0 10 -4 10 -10z m-673 -42 c-15 -9 -19 -4 -11 16 5 14 9 15 15 5 5 -8 3 -17 -4 -21z m698 -47 c-7 -6 -65 50 -65 63 0 5 16 -5 35 -24 19 -18 32 -36 30 -39z m0 59 c-3 -5 -11 -10 -16 -10 -6 0 -7 5 -4 10 3 6 11 10 16 10 6 0 7 -4 4 -10z m33 -22 c-2 -6 -10 -14 -16 -16 -7 -2 -10 2 -6 12 7 18 28 22 22 4z m-594 -81 c-3 -8 -1 -18 5 -22 14 -8 14 -42 1 -50 -13 -8 -60 21 -60 37 0 6 10 2 23 -10 29 -27 43 -17 22 15 -9 13 -13 28 -10 33 3 5 -4 20 -16 34 -18 20 -26 23 -41 15 -22 -12 -21 -50 1 -57 9 -3 11 1 7 16 -9 27 7 36 22 11 7 -10 8 -19 4 -19 -5 0 -13 -9 -18 -20 l-9 -21 -23 21 c-29 28 -28 54 5 80 l27 21 33 -35 c19 -20 31 -41 27 -49z m476 64 c0 -5 -9 -11 -20 -14 -38 -10 -12 -63 27 -55 13 3 17 12 16 32 -2 27 -1 28 17 11 18 -17 18 -18 -7 -41 -31 -28 -40 -30 -65 -7 -22 20 -23 46 -2 67 17 18 34 21 34 7z m-440 -66 c7 -9 8 -15 2 -15 -5 0 -12 7 -16 15 -3 8 -4 15 -2 15 2 0 9 -7 16 -15z m339 -46 c19 -34 20 -43 10 -50 -23 -14 -48 -10 -59 10 -13 25 -13 31 0 31 6 0 10 -6 10 -14 0 -17 27 -29 35 -16 3 5 -2 18 -12 28 -19 19 -29 52 -16 52 4 0 19 -19 32 -41z m-299 27 c0 -12 -48 -85 -52 -80 -7 6 34 84 45 84 4 0 7 -2 7 -4z m240 -10 c0 -3 -4 -8 -10 -11 -5 -3 -10 -1 -10 4 0 6 5 11 10 11 6 0 10 -2 10 -4z m-200 -16 c0 -5 -4 -10 -10 -10 -5 0 -10 5 -10 10 0 6 5 10 10 10 6 0 10 -4 10 -10z m160 -10 c-20 -13 -33 -13 -25 0 3 6 14 10 23 10 15 0 15 -2 2 -10z m-190 -20 c0 -5 -4 -10 -10 -10 -5 0 -10 5 -10 10 0 6 5 10 10 10 6 0 10 -4 10 -10z m158 -3 c17 -12 45 -67 32 -67 -5 0 -16 16 -24 35 -10 24 -20 33 -30 29 -8 -3 -23 -1 -32 4 -14 8 -12 10 12 8 16 -1 35 -5 42 -9z m65 -16 c11 -18 13 -32 7 -36 -5 -3 -12 6 -16 20 -3 14 -13 25 -21 25 -8 0 -11 5 -8 10 10 16 20 12 38 -19z m-95 -13 c7 -7 12 -22 12 -34 0 -19 -5 -22 -32 -21 -33 2 -47 26 -20 35 8 2 10 -2 5 -14 -4 -12 -2 -15 8 -12 23 8 23 38 0 38 -12 0 -21 5 -21 10 0 14 33 13 48 -2z m-136 -10 c-9 -9 -15 -9 -24 0 -9 9 -7 12 12 12 19 0 21 -3 12 -12z"/> <path d="M1838 1729 c-54 -27 -98 -51 -98 -54 0 -3 46 18 101 46 80 39 104 48 110 37 7 -10 9 -9 9 5 0 25 -15 21 -122 -34z"/> <path d="M1184 1729 c26 -17 50 -28 52 -26 5 5 -80 57 -93 57 -4 0 14 -14 41 -31z"/> <path d="M1967 1680 c3 -36 7 -67 9 -69 7 -8 2 84 -6 109 -5 15 -6 -1 -3 -40z"/> <path d="M1983 1530 c0 -41 2 -58 4 -37 2 20 2 54 0 75 -2 20 -4 3 -4 -38z"/> <path d="M1966 1394 c-4 -31 -5 -59 -2 -61 2 -3 8 21 11 52 4 31 5 58 3 61 -3 2 -8 -21 -12 -52z"/> <path d="M1947 1290 c-4 -19 -25 -71 -47 -117 -50 -102 -129 -190 -230 -255 -83 -53 -88 -67 -6 -17 84 52 136 100 187 172 51 73 112 208 107 235 -2 9 -7 1 -11 -18z"/> <path d="M1335 936 c17 -13 63 -41 103 -61 58 -30 79 -36 107 -31 19 4 37 12 41 18 5 8 1 9 -12 3 -10 -4 -29 -10 -40 -12 -23 -5 -129 43 -181 83 -41 31 -57 31 -18 0z"/> <path d="M1707 1319 c7 -7 15 -10 18 -7 3 3 -2 9 -12 12 -14 6 -15 5 -6 -5z"/> <path d="M1498 1273 c12 -2 30 -2 40 0 9 3 -1 5 -23 4 -22 0 -30 -2 -17 -4z"/> <path d="M1503 1233 c9 -2 23 -2 30 0 6 3 -1 5 -18 5 -16 0 -22 -2 -12 -5z"/> <path d="M1508 1203 c7 -3 16 -2 19 1 4 3 -2 6 -13 5 -11 0 -14 -3 -6 -6z"/> <path d="M1505 1180 c3 -5 8 -10 11 -10 2 0 4 5 4 10 0 6 -5 10 -11 10 -5 0 -7 -4 -4 -10z"/> <path d="M1508 1143 c7 -3 16 -2 19 1 4 3 -2 6 -13 5 -11 0 -14 -3 -6 -6z"/> <path d="M926 1705 c-3 -8 -1 -15 4 -15 6 0 10 5 10 11 0 5 5 7 10 4 6 -3 10 -1 10 4 0 17 -27 13 -34 -4z"/> <path d="M1090 1146 c0 -8 6 -16 13 -19 6 -2 8 -8 4 -13 -4 -5 -12 -2 -16 5 -5 8 -17 11 -30 6 -12 -3 -19 -11 -15 -16 3 -5 15 -7 26 -3 13 4 18 2 14 -4 -4 -6 2 -8 14 -5 21 5 25 19 14 47 -8 20 -24 21 -24 2z"/> <path d="M2005 580 c-3 -6 1 -7 9 -4 18 7 21 14 7 14 -6 0 -13 -4 -16 -10z"/> </g> </svg> 